# xmcd
# Copyright (C) 1995-1998 Ti Kan
#
# Track frame offsets:
#       150
#       17764
#       33507
#       61013
#       78154
#       91792
#       101788
#       114657
#       138287
#       153882
#
# Disc length: 2275 seconds
#
# Revision: 0
# Processed by: cddbd v1.5.2PL0 Copyright (c) Steve Scherf et al.
# Submitted via: CD-Import v1.0
#
DISCID=6e08e10a
DTITLE=J.c And Anphibius - Resurrection Jingles
DYEAR=1900
DGENRE=
TTITLE0=Doing Time On Earth
TTITLE1=The Walls Are Soft
TTITLE2=Original Source
TTITLE3=Unhappy Hour
TTITLE4=Tea Leaves
TTITLE5=Subway Ride Home
TTITLE6=Cryptic Clue: Shotgun Ends My Life On Happiest Day
TTITLE7=So Soon
TTITLE8=Maybe Perhapsman
TTITLE9=I Shot A Deer
EXTD=
EXTT0=
EXTT1=
EXTT2=
EXTT3=
EXTT4=
EXTT5=
EXTT6=
EXTT7=
EXTT8=
EXTT9=
PLAYORDER=
